HIERARCHY
ROOT mixamorig:Hips
{
  OFFSET 0.000000 0.000000 0.000000
  CHANNELS 6 Xposition Yposition Zposition Xrotation Yrotation Zrotation
  JOINT mixamorig:Spine
  {
    OFFSET 0.881470 21.810334 -9.076147
    CHANNELS 3 Xrotation Yrotation Zrotation
    JOINT mixamorig:Spine2
    {
      OFFSET 0.881470 21.810334 -9.076147
      CHANNELS 3 Xrotation Yrotation Zrotation
      JOINT mixamorig:Neck
      {
        OFFSET 0.000000 4.674388 0.000000
        CHANNELS 3 Xrotation Yrotation Zrotation
        JOINT mixamorig:Head
        {
          OFFSET 0.000000 4.678088 0.000000
          CHANNELS 3 Xrotation Yrotation Zrotation
          End Site
          {
            OFFSET 0.000000 1.403426 0.000000
          }
        }
      }
      JOINT mixamorig:LeftShoulder
      {
        OFFSET 15.792676 2.209392 -1.224738
        CHANNELS 3 Xrotation Yrotation Zrotation
        JOINT mixamorig:LeftArm
        {
          OFFSET 3.082085 -20.340128 -8.765461
          CHANNELS 3 Xrotation Yrotation Zrotation
          JOINT mixamorig:LeftForeArm
          {
            OFFSET -6.633304 3.932203 -15.582597
            CHANNELS 3 Xrotation Yrotation Zrotation
            JOINT mixamorig:LeftHand
            {
              OFFSET -2.474855 3.119097 -1.955211
              CHANNELS 3 Xrotation Yrotation Zrotation
              End Site
              {
                OFFSET -0.742457 0.935729 -0.586563
              }
            }
          }
        }
      }
      JOINT mixamorig:RightShoulder
      {
        OFFSET -15.792676 2.209392 1.224738
        CHANNELS 3 Xrotation Yrotation Zrotation
        JOINT mixamorig:RightArm
        {
          OFFSET -2.495612 -27.698627 -14.139695
          CHANNELS 3 Xrotation Yrotation Zrotation
          JOINT mixamorig:RightForeArm
          {
            OFFSET 9.302673 7.642058 -20.278665
            CHANNELS 3 Xrotation Yrotation Zrotation
            JOINT mixamorig:RightHand
            {
              OFFSET 4.807220 4.843324 -4.521461
              CHANNELS 3 Xrotation Yrotation Zrotation
              End Site
              {
                OFFSET 1.442166 1.452997 -1.356438
              }
            }
          }
        }
      }
    }
  }
  JOINT mixamorig:LeftUpLeg
  {
    OFFSET 10.328032 0.296165 2.790499
    CHANNELS 3 Xrotation Yrotation Zrotation
    JOINT mixamorig:LeftLeg
    {
      OFFSET 12.238276 -41.735834 -6.323935
      CHANNELS 3 Xrotation Yrotation Zrotation
      JOINT mixamorig:LeftFoot
      {
        OFFSET 10.293044 -35.926831 16.299592
        CHANNELS 3 Xrotation Yrotation Zrotation
        JOINT mixamorig:LeftToeBase
        {
          OFFSET 1.935367 -5.189186 -6.192034
          CHANNELS 3 Xrotation Yrotation Zrotation
          End Site
          {
            OFFSET 0.580610 -1.556756 -1.857610
          }
        }
      }
    }
  }
  JOINT mixamorig:RightUpLeg
  {
    OFFSET -10.328032 -0.296165 -2.790499
    CHANNELS 3 Xrotation Yrotation Zrotation
    JOINT mixamorig:RightLeg
    {
      OFFSET -6.716455 -33.878452 3.035436
      CHANNELS 3 Xrotation Yrotation Zrotation
      JOINT mixamorig:RightFoot
      {
        OFFSET -12.031321 -38.248560 17.087646
        CHANNELS 3 Xrotation Yrotation Zrotation
        JOINT mixamorig:RightToeBase
        {
          OFFSET -4.660299 -1.482713 -10.654258
          CHANNELS 3 Xrotation Yrotation Zrotation
          End Site
          {
            OFFSET -1.398090 -0.444814 -3.196277
          }
        }
      }
    }
  }
}
MOTION
Frames: 12
Frame Time: 0.083333
0.074155 0.235060 0.097923 -2.248447 -0.567029 -1.486747 0.000000 0.000000 0.000000 -22.615364 0.108913 1.644782 34.960660 6.025011 -2.123273 34.081937 8.287327 1.021741 32.557284 -2.610939 6.981788 5.861539 -1.750404 -14.259103 -3.384013 7.038758 -0.783593 0.000000 0.000000 0.000000 31.700097 -5.007777 7.157161 7.140972 6.864681 -0.078467 -6.696819 -1.760284 -0.184182 0.000000 0.000000 0.000000 10.289667 2.263287 5.614008 -6.665181 -0.804377 -5.079466 -4.673989 -3.439568 2.620209 0.000000 0.000000 0.000000 11.395797 -0.994287 -5.125651 -8.791086 0.688474 6.683360 3.504328 4.752814 -2.269277 0.000000 0.000000 0.000000
0.073747 0.236832 0.112143 -0.580862 0.085237 0.262383 0.000000 0.000000 0.000000 -22.507339 2.830958 0.775212 34.043088 2.251964 -3.431100 33.725832 4.555790 -2.678502 36.441010 -9.576091 15.841686 -2.275719 16.143198 -14.983035 2.750157 2.507596 9.502504 0.000000 0.000000 0.000000 30.894051 -4.883310 2.434941 3.870212 5.591534 5.088470 -6.535578 -3.019291 -1.638126 0.000000 0.000000 0.000000 8.665356 1.438515 3.849977 -5.199891 -0.284443 -4.325790 -2.677692 -1.294508 0.554506 0.000000 0.000000 0.000000 10.735864 -2.048088 -7.151674 -9.712830 0.837831 7.662764 3.169013 3.518570 -2.599049 0.000000 0.000000 0.000000
0.071929 0.237683 0.145632 4.830550 0.829557 3.120271 0.000000 0.000000 0.000000 -22.370460 7.442247 -1.389938 31.686511 -2.155931 -5.346525 31.618860 0.371371 -7.098748 41.538163 -17.652172 25.689682 -8.367082 35.069266 -17.235466 3.823331 -5.254884 18.405456 0.000000 0.000000 0.000000 26.933650 -8.269194 1.572234 1.009719 7.687021 7.173761 -6.185882 -3.953427 -1.586054 0.000000 0.000000 0.000000 2.294520 0.601976 0.758061 -2.380018 0.555071 -3.065136 -3.541574 0.260556 -2.075307 0.000000 0.000000 0.000000 5.825415 -2.944476 -10.653757 -9.235599 0.866580 9.226060 1.070533 5.654114 -3.268703 0.000000 0.000000 0.000000
0.070386 0.236889 0.179462 15.126237 0.982425 5.970358 0.000000 0.000000 0.000000 -22.183350 13.661564 -4.402922 27.500982 -7.325641 -6.360653 27.432416 -5.187833 -10.350697 44.983460 -19.221800 28.299939 -24.194319 32.181248 -14.886680 -3.674226 -7.159348 19.122418 0.000000 0.000000 0.000000 18.272176 -13.835587 3.224469 -1.954631 12.282786 6.914468 -5.799144 -4.325314 -0.728609 0.000000 0.000000 0.000000 -9.666064 1.049746 -2.594554 0.293382 1.393087 -1.417292 -3.819312 1.960600 -4.882273 0.000000 0.000000 0.000000 -5.383265 -2.295810 -14.168537 -6.598402 0.825038 10.654057 -2.527092 10.009033 -3.936262 0.000000 0.000000 0.000000
0.067981 0.236799 0.192902 22.552170 0.587610 7.173378 0.000000 0.000000 -0.000000 -22.026483 17.274948 -6.730164 24.952869 -11.125699 -6.033586 24.500587 -9.655905 -11.271956 48.236014 -8.174066 17.380759 -56.162807 5.797796 -0.553697 -10.782539 -1.481533 14.901105 0.000000 0.000000 0.000000 10.892982 -17.201899 4.923179 -3.010457 17.733512 6.095299 -5.042363 -4.799302 1.043900 0.000000 0.000000 0.000000 -18.139815 2.398342 -4.158089 2.166891 2.259633 0.591633 -3.919644 2.846904 -7.424856 0.000000 0.000000 0.000000 -13.102382 -0.881097 -16.094682 -4.536101 0.780441 12.145844 -5.143102 14.811588 -4.987143 0.000000 0.000000 0.000000
0.063616 0.238599 0.191298 20.984794 0.863061 7.729904 0.000000 0.000000 -0.000000 -21.980568 19.075665 -6.892620 26.465497 -13.126353 -5.506291 25.541690 -12.057005 -11.869443 42.486335 -9.945474 15.806717 -41.482389 12.240388 -2.528127 -8.058486 -6.357365 14.161714 0.000000 0.000000 0.000000 9.903969 -19.104759 5.049218 0.777017 19.778342 6.552851 -4.469915 -7.267851 1.792835 0.000000 0.000000 0.000000 -17.033099 2.177301 -5.433705 3.565297 2.774252 2.162367 -5.732261 0.817200 -7.289312 0.000000 0.000000 0.000000 -10.922211 -1.383255 -18.067574 -4.036041 0.633628 14.050492 -6.427768 19.671178 -6.191689 0.000000 0.000000 0.000000
0.058868 0.237846 0.185344 15.149626 1.399926 7.505693 0.000000 0.000000 -0.000000 -22.125313 16.570339 -5.607303 28.649137 -11.078430 -5.721996 27.960429 -9.663767 -11.621594 34.673133 -16.295698 16.990146 -18.736656 23.936590 -5.472952 -1.307480 -6.664835 14.983470 0.000000 0.000000 0.000000 10.393204 -17.354517 4.352628 4.985538 20.292693 5.292766 -2.232913 -9.715372 3.472132 0.000000 0.000000 0.000000 -9.985367 1.000788 -4.782750 1.404146 2.392788 1.358514 -7.626864 -2.803520 -4.530939 0.000000 0.000000 0.000000 -5.310648 -2.607639 -18.574335 -5.041980 0.814155 15.040894 -4.670677 23.363349 -7.339499 0.000000 0.000000 0.000000
0.057806 0.233359 0.173539 5.207651 2.033596 6.153553 0.000000 0.000000 0.000000 -22.414740 10.376307 -3.261960 32.973719 -5.211030 -7.037543 31.004505 -2.537211 -10.483959 32.527974 -16.271138 18.511996 -2.105105 21.769273 -13.559030 -3.013820 -5.949849 9.335971 0.000000 0.000000 0.000000 16.930943 -12.050218 3.303927 2.006148 18.865266 2.127085 3.384028 -11.203433 6.362761 0.000000 0.000000 0.000000 4.236310 -0.959707 -0.452941 -4.076521 0.871059 -4.889766 -7.525179 -7.952117 3.944616 0.000000 0.000000 0.000000 3.194690 -4.248614 -16.432814 -6.606173 0.921738 13.199725 0.739137 20.833832 -6.650396 0.000000 0.000000 0.000000
0.067955 0.226007 0.150640 6.153338 1.262483 3.916604 0.000000 0.000000 0.000000 -22.805475 -2.637499 -3.700460 34.596675 9.982928 -11.275930 24.607039 15.709480 -3.908608 21.358518 -3.856922 16.485705 11.976012 6.148348 -22.366462 -9.522008 1.211422 6.138856 0.000000 0.000000 0.000000 16.269528 2.675285 0.085398 -2.344330 9.946225 1.008074 5.925658 -8.277349 4.820292 0.000000 0.000000 0.000000 6.910775 -0.320894 4.813989 -6.086825 0.046190 -11.759536 -10.883538 -14.542589 14.379627 0.000000 0.000000 0.000000 -0.521359 -2.883045 -11.981258 -7.534879 -0.021848 6.366575 2.790275 13.561493 0.285745 0.000000 0.000000 0.000000
0.096040 0.230812 0.100862 14.751935 -0.298887 0.371103 0.000000 0.000000 0.000000 -23.508454 -22.871235 -3.118087 41.814164 27.653562 -21.268862 8.958717 39.227588 5.607431 8.770304 18.068871 12.380196 20.780389 -9.634028 -28.057683 -13.933709 8.009589 2.489125 0.000000 0.000000 0.000000 10.362437 23.272782 -1.579233 -3.475731 -11.746800 -12.080550 -0.377759 -2.660185 6.469497 0.000000 0.000000 0.000000 -2.745483 1.031770 8.944656 -3.295791 -0.492938 -15.551348 -18.041120 -23.749761 26.654324 0.000000 0.000000 0.000000 -9.572451 -1.155929 -4.022030 -10.079086 -3.468542 -7.873924 -3.518537 -0.552892 18.834996 0.000000 0.000000 0.000000
0.124871 0.250757 0.052566 21.804104 -1.787180 -4.999464 0.000000 0.000000 0.000000 -9.363806 -44.927512 -11.559944 60.555178 26.644543 -35.778883 4.533420 50.066487 2.952533 2.666688 36.842899 11.304938 12.683687 -14.020086 -25.484934 -22.445795 10.683207 -8.949189 0.000000 0.000000 0.000000 7.760835 34.219181 20.887122 -8.516782 -38.508825 -50.989275 -25.393383 -8.325707 30.735763 0.000000 0.000000 0.000000 -13.166417 0.763799 14.831332 2.794530 -0.052213 -16.540328 -29.497448 -33.534905 37.498321 0.000000 0.000000 0.000000 -15.769397 -0.982716 7.162280 -14.934500 -7.621546 -24.642886 -14.004921 -14.556865 43.693899 0.000000 0.000000 0.000000
0.141406 0.273935 0.039097 25.261203 -2.572832 -9.380711 0.000000 0.000000 0.000000 56.836662 -67.127755 -69.303711 82.191384 16.553057 -42.758306 29.578016 54.492684 -18.133869 -21.045337 34.975949 44.686850 -44.141563 4.711320 -15.040467 -40.599918 14.277020 -32.536915 0.000000 0.000000 0.000000 -6.404963 43.561642 77.895182 -35.675372 -50.272212 -48.318877 -55.665830 -46.319559 74.698557 0.000000 0.000000 0.000000 -19.292188 -0.959253 19.373109 8.962418 0.828888 -15.431351 -38.092382 -39.261262 43.773579 0.000000 0.000000 0.000000 -20.430132 -1.781873 9.471724 -13.320462 -10.212808 -26.254141 -20.699760 -17.953815 53.511892 0.000000 0.000000 0.000000
